<svg width="22" height="22" fill="none" xmlns="http://www.w3.org/2000/svg"><g clip-path="url(#clip0_326_723)"><path d="M19.965 12.748a24.082 24.082 0 01-.61-.48v-1.904c.327-1.13 1.72-4.816 2.059-5.995.086-.302-.251-.563-.522-.404-1.14.673-2.291 1.003-3.435.98-1.308-.027-2.073-.505-2.883-1.012-.79-.495-1.608-1.006-2.911-1.085-1.435-.085-2.318.411-3.256.938-.85.476-1.727.969-3.139 1.066C3.723 4.96 2.13 4.55.531 3.636c-.275-.156-.61.116-.514.417a62.338 62.338 0 001.19 3.318 74.54 74.54 0 011.01 2.759v2.168C-.11 14.895-.105 15.638.145 16.333l.015.045c.595 3.35 10.546 2.753 11.392 2.726 3.37-.109 9.645-.31 10.378-3.103.38-1.449-.866-2.407-1.965-3.253zM1.87 7.118a71.188 71.188 0 01-.903-2.453c1.46.693 2.92.994 4.349.895 1.571-.108 2.562-.664 3.437-1.155.881-.495 1.64-.923 2.866-.848 1.123.068 1.829.51 2.577.978.856.535 1.742 1.09 3.245 1.12 1.016.02 2.036-.206 3.043-.674-.257.8-1.06 2.926-1.2 3.315a1.601 1.601 0 00-1.529-1.132h-.253c-.465 0-.883.201-1.176.52a1.594 1.594 0 00-1.315-.697h-.253c-.364 0-.698.123-.967.328a1.6 1.6 0 00-1.513-1.089h-.254c-.502 0-.95.234-1.244.598a1.591 1.591 0 00-1.243-.598h-.253a1.6 1.6 0 00-1.514 1.09 1.589 1.589 0 00-.966-.329h-.253c-.544 0-1.025.274-1.314.69a1.593 1.593 0 00-1.17-.513h-.253A1.6 1.6 0 002.3 8.255c-.144-.39-.288-.766-.43-1.136zm14.388 4.607a.354.354 0 00-.305.177h-2.439a.354.354 0 00-.305.177H8.354a.354.354 0 00-.305-.177H5.617a.354.354 0 00-.305-.176H2.926v-1.067h2.386c.13 0 .244-.071.305-.177H8.05c.13 0 .244-.071.305-.176h4.856a.353.353 0 00.305.177h2.44a.354.354 0 00.305.176h2.385v1.066H16.26zm2.386.71v1.187a.89.89 0 01-.889.889h-.253a.89.89 0 01-.89-.889v-1.187h2.032zm-2.744.177v1.187a.89.89 0 01-.89.889h-.252a.89.89 0 01-.89-.889v-1.187H15.9zm-2.733 1.948a.89.89 0 01-.89.889h-.253a.89.89 0 01-.888-.889v-1.77h2.023l.008 1.771zm-2.74-1.771v1.771a.89.89 0 01-.89.889h-.253a.89.89 0 01-.889-.889l.007-1.771h2.024zm-2.734-.177v1.187a.89.89 0 01-.889.889h-.253a.89.89 0 01-.89-.889l.005-1.187h2.027zm-4.768-.177h2.031v1.187a.89.89 0 01-.889.889h-.253a.89.89 0 01-.889-.889v-1.187zm0-2.485V8.762a.89.89 0 01.89-.888h.253a.89.89 0 01.888.888V9.95h-2.03zm2.737-1.364a.89.89 0 01.889-.89h.253a.89.89 0 01.89.89v1.187H5.666l-.004-1.187zm2.733-.762a.89.89 0 01.89-.888h.252a.89.89 0 01.89.888v1.772H8.403l-.008-1.772zm2.74 1.772V7.824a.89.89 0 01.89-.888h.253a.89.89 0 01.889.888l-.007 1.772h-2.024zm2.734.177V8.586a.89.89 0 01.889-.89h.253a.89.89 0 01.889.89v1.187h-2.03zm4.775.177h-2.03V8.762a.89.89 0 01.888-.888h.253a.89.89 0 01.89.888V9.95h-.001zm.194 2.81l.002.002h-.002v-.002zm2.405 3.06c-.6 2.281-6.987 2.487-9.723 2.575-3.178.102-9.79.315-10.691-2.253l-.017-.048c-.11-.304-.267-.747 1.404-2.717v.245a1.6 1.6 0 001.598 1.599h.254c.462 0 .877-.199 1.17-.513.289.416.77.69 1.313.69h.253c.364 0 .698-.124.967-.328a1.6 1.6 0 001.513 1.089h.254c.502 0 .95-.234 1.242-.598.293.364.742.598 1.245.598h.253a1.6 1.6 0 001.514-1.09c.269.205.603.329.966.329h.253c.546 0 1.028-.277 1.316-.696.292.318.71.519 1.175.519h.254a1.6 1.6 0 001.598-1.599v-.45l.177.138c1.014.78 1.973 1.518 1.712 2.51z" fill="#22A5E6"/></g><defs><clipPath id="clip0_326_723"><path fill="#fff" d="M0 0h22v22H0z"/></clipPath></defs></svg>