<svg width="25" height="25" fill="none" xmlns="http://www.w3.org/2000/svg"><g clip-path="url(#clip0_326_699)" fill="#22A5E6"><path d="M20.021 13.31c.105-1.22.061-2.386-.131-3.472-.295-1.662-.92-2.96-1.76-3.657-1.488-1.232-2.768-.792-4.006-.367-.677.232-1.376.472-2.178.489-.8-.017-1.5-.257-2.177-.49-1.238-.424-2.518-.864-4.006.368-.84.696-1.465 1.995-1.76 3.657-.349 1.965-.2 4.27.418 6.488.65 2.334 1.767 4.453 3.229 6.127a1.32 1.32 0 001.224.439 1.36 1.36 0 001.024-.836c.309-.753.557-1.437.74-2.033a1.37 1.37 0 011.308-.991c.294 0 .575.095.812.274.237.18.409.427.497.717a23.7 23.7 0 00.74 2.034 1.36 1.36 0 001.024.835c.457.08.914-.085 1.224-.44.214-.245.423-.503.625-.77.716.483 1.56.744 2.422.744 2.445 0 4.435-2.058 4.435-4.59 0-2.267-1.59-4.165-3.704-4.527zm-.73 8.138a3.422 3.422 0 01-2.22-.824 3.56 3.56 0 01-.448-.458.462.462 0 00-.666-.058.501.501 0 00-.056.69c.074.09.153.178.234.263-.191.256-.39.502-.593.735a.39.39 0 01-.366.13.408.408 0 01-.31-.252 22.495 22.495 0 01-.709-1.946 2.381 2.381 0 00-.84-1.212 2.251 2.251 0 00-1.37-.462c-1.017 0-1.905.673-2.211 1.674a22.787 22.787 0 01-.708 1.946.408.408 0 01-.311.253.39.39 0 01-.365-.13C5.656 18.71 4.25 13.864 4.933 10.014c.25-1.41.768-2.529 1.421-3.07.525-.435.995-.591 1.473-.591.512 0 1.035.18 1.644.388.712.245 1.518.522 2.467.539h.017c.949-.017 1.755-.294 2.467-.539 1.179-.404 2.03-.697 3.117.203.653.541 1.17 1.66 1.42 3.07.18 1.007.219 2.094.118 3.237-2.152.106-3.935 1.806-4.191 4.037a.486.486 0 00.47.547c.236 0 .44-.182.469-.431.208-1.813 1.698-3.18 3.465-3.18.057 0 .118.002.186.006 1.853.1 3.304 1.685 3.304 3.606 0 1.991-1.566 3.61-3.49 3.61z"/><path d="M9.892 11.58a.454.454 0 00.17-.073.514.514 0 00.131-.135.499.499 0 00-.212-.723.461.461 0 00-.617.264.502.502 0 00.173.594.494.494 0 00.17.073.453.453 0 00.185 0zm4.638-.667a.502.502 0 00-.175-.22.47.47 0 00-.355-.072.46.46 0 00-.242.133.472.472 0 00-.102.16.492.492 0 00-.036.186.5.5 0 00.21.407.463.463 0 00.597-.061.5.5 0 00.103-.533zm-1.166 2.292a2.408 2.408 0 01-2.835 0 .463.463 0 00-.659.12.5.5 0 00.116.681 3.332 3.332 0 003.92 0 .5.5 0 00.116-.681.463.463 0 00-.658-.12zM5.288 5.786l.005-.001a.644.644 0 00.463-.633.642.642 0 00-.478-.62l-.01-.004c-.872-.218-1.55-.912-1.771-1.81l-.013-.053a.629.629 0 00-.606-.488.63.63 0 00-.606.487l-.001.006A2.526 2.526 0 01.478 4.527l-.007.002A.642.642 0 000 5.155c0 .296.194.554.472.627l.004.001c.883.232 1.57.944 1.795 1.857l.013.053a.617.617 0 00.594.478c.28 0 .525-.197.594-.478.228-.929.925-1.66 1.816-1.907zm-2.404.806a3.487 3.487 0 00-1.383-1.437 3.485 3.485 0 001.371-1.414 3.412 3.412 0 001.385 1.43 3.58 3.58 0 00-1.373 1.421zM23.762 7.64l-.008-.003A1.597 1.597 0 0122.6 6.456l-.01-.038a.584.584 0 00-.562-.453.586.586 0 00-.564.457 1.653 1.653 0 01-1.178 1.216.597.597 0 00-.438.582c0 .276.18.515.442.584a1.652 1.652 0 011.174 1.215l.01.037a.576.576 0 00.554.446c.262 0 .49-.183.554-.446.15-.61.607-1.089 1.195-1.252a.598.598 0 00.43-.588.596.596 0 00-.444-.576zm-1.73 1.326a2.61 2.61 0 00-.717-.745c.28-.193.519-.44.706-.729.188.295.433.547.718.741a2.682 2.682 0 00-.707.733zm-.613 6.939c-1.41.227-2.274 1.749-2.7 2.767-.59-.534-1.39-.757-1.516-.79a.471.471 0 00-.572.356.49.49 0 00.342.594c.322.085 1.274.454 1.42 1.018.055.213.24.362.454.363h.003a.476.476 0 00.455-.357c.206-.762 1.014-2.784 2.259-2.984a.487.487 0 00.394-.558.475.475 0 00-.54-.409zm-5.478 2.96a.514.514 0 00-.102-.159.487.487 0 00-.242-.134.45.45 0 00-.355.073.475.475 0 00-.174.22.535.535 0 00-.036.187.503.503 0 00.21.407.461.461 0 00.656-.135.504.504 0 00.043-.46z"/></g><defs><clipPath id="clip0_326_699"><path fill="#fff" d="M0 0h24.206v25H0z"/></clipPath></defs></svg>