<svg width="17" height="22" fill="none" xmlns="http://www.w3.org/2000/svg"><path d="M10.91 19.273l-.132.684c-.102.53-.346.822-.72 1.024-.376.203-.92.304-1.6.304-.676 0-1.23-.069-1.575-.304-.488-.33-.66-.69-.765-1.092l4.791-.616zm.878-1.726c.201-.025.41.108.448.376a.43.43 0 01-.351.5l-6.77.871c-.201.025-.409-.105-.446-.375-.037-.27.147-.477.348-.504l6.77-.868zm-.374-1.591l-.137.934-5.532.71-.143-.985 5.812-.66zm1.398-1.323c0 .25-.152.462-.44.496L4.69 16c-.29.032-.542-.136-.581-.385-.038-.247.15-.458.438-.49l7.686-.87c.354-.042.579.164.579.38zm-7.798-1.855h6.888l-.137.805-6.502.736-.25-1.54zm-1.012-2.096c.056.001.112.005.168.005h8.577c.058 0 .114-.004.168-.005v.601c0 .439-.395.783-.905.783h-7.1c-.51 0-.908-.344-.908-.783v-.601zM4.416.714c1.173 0 1.877.308 2.69.714 1.01.507 2.127.956 3.184 1.062.547.07.667-.64.121-.709a5.97 5.97 0 01-1.274-.28c.296-.087.739-.232 1.013-.329.69-.24 1.362-.458 2.352-.458 1.383 0 2.51.842 3.115 2.1.605 1.26.634 2.902-.213 4.365-.451.764-.694 1.262-.993 1.707-.224.333-.407.614-.635.793-.229.18-.495.295-1.028.295H4.17c-.532 0-.798-.114-1.026-.295-.229-.179-.414-.46-.638-.793-.299-.445-.542-.943-.99-1.707C.667 5.716.699 4.073 1.3 2.814c.605-1.259 1.732-2.1 3.115-2.1zm0-.714C2.642 0 1.232 1.089.536 2.54-.16 3.992-.188 5.84.514 7.043c.7 1.205.94 1.702 1.277 2.202.216.322.428.674.794.963.164.129.361.236.59.319v.757c0 .587.4 1.092.975 1.337l.29 1.792c-.728.083-1.249.67-1.152 1.298.098.624.768 1.069 1.489.997l.147 1-.029.002c-.697.09-1.136.685-1.05 1.293.082.607.693 1.089 1.391.999l.081-.01a.29.29 0 00.009.094c.158.677.55 1.19 1.113 1.497.56.307 1.25.417 2.02.417.768 0 1.473-.106 2.042-.412a2.14 2.14 0 001.094-1.514l.177-.912.234-.03c.698-.09 1.138-.684 1.055-1.29-.067-.471-.448-.863-.943-.976l.147-1.006.214-.023c.732-.082 1.253-.67 1.155-1.3-.077-.487-.503-.86-1.03-.967l.16-.946c.577-.244.982-.75.982-1.34v-.757c.226-.08.424-.19.587-.319.366-.288.58-.64.796-.962.334-.5.575-.998 1.277-2.203.702-1.203.673-3.05-.023-4.502-.698-1.452-2.106-2.54-3.881-2.54-1.136 0-1.96.266-2.662.51-.66.23-1.22.408-1.92.431-.116-.056-.288-.08-.406-.136C6.679.4 5.769 0 4.416 0z" fill="#22A5E6"/></svg>