<svg width="45" height="45" fill="none" xmlns="http://www.w3.org/2000/svg"><path d="M33.75 2.813h-22.5a8.438 8.438 0 00-8.438 8.437v22.5a8.438 8.438 0 008.438 8.438h22.5a8.438 8.438 0 008.438-8.438v-22.5a8.438 8.438 0 00-8.438-8.438z" fill="url(#paint0_radial_253_69)"/><path d="M33.75 2.813h-22.5a8.438 8.438 0 00-8.438 8.437v22.5a8.438 8.438 0 008.438 8.438h22.5a8.438 8.438 0 008.438-8.438v-22.5a8.438 8.438 0 00-8.438-8.438z" fill="url(#paint1_radial_253_69)"/><path d="M33.75 2.813h-22.5a8.438 8.438 0 00-8.438 8.437v22.5a8.438 8.438 0 008.438 8.438h22.5a8.438 8.438 0 008.438-8.438v-22.5a8.438 8.438 0 00-8.438-8.438z" fill="url(#paint2_radial_253_69)"/><path d="M32.344 14.766a2.11 2.11 0 11-4.22 0 2.11 2.11 0 014.22 0z" fill="#fff"/><path fill-rule="evenodd" clip-rule="evenodd" d="M22.5 29.531a7.031 7.031 0 100-14.062 7.031 7.031 0 000 14.062zm0-2.812a4.219 4.219 0 100-8.438 4.219 4.219 0 000 8.438z" fill="#fff"/><path fill-rule="evenodd" clip-rule="evenodd" d="M8.438 21.938c0-4.726 0-7.089.92-8.893a8.437 8.437 0 013.686-3.688c1.805-.92 4.168-.92 8.893-.92h1.125c4.726 0 7.089 0 8.893.92a8.437 8.437 0 013.688 3.688c.92 1.804.92 4.167.92 8.893v1.125c0 4.725 0 7.088-.92 8.893a8.437 8.437 0 01-3.688 3.687c-1.804.92-4.167.92-8.892.92h-1.125c-4.726 0-7.089 0-8.893-.92a8.437 8.437 0 01-3.688-3.688c-.92-1.804-.92-4.167-.92-8.892v-1.125zm13.5-10.688h1.125c2.409 0 4.046.002 5.312.106 1.233.1 1.864.283 2.304.507a5.625 5.625 0 012.458 2.458c.224.44.407 1.07.507 2.304.104 1.266.106 2.903.106 5.313v1.125c0 2.409-.002 4.046-.106 5.312-.1 1.233-.283 1.864-.507 2.304a5.625 5.625 0 01-2.458 2.458c-.44.224-1.07.407-2.304.507-1.266.104-2.903.106-5.313.106h-1.125c-2.409 0-4.046-.002-5.312-.106-1.233-.1-1.864-.283-2.304-.507a5.625 5.625 0 01-2.458-2.458c-.224-.44-.407-1.07-.507-2.304-.104-1.266-.106-2.903-.106-5.313v-1.125c0-2.409.002-4.046.106-5.312.1-1.233.283-1.864.507-2.304a5.626 5.626 0 012.458-2.458c.44-.224 1.07-.407 2.304-.507 1.266-.104 2.903-.106 5.313-.106z" fill="#fff"/><defs><radialGradient id="paint0_radial_253_69" cx="0" cy="0" r="1" gradientUnits="userSpaceOnUse" gradientTransform="rotate(-55.376 39.256 .093) scale(35.8869)"><stop stop-color="#B13589"/><stop offset=".793" stop-color="#C62F94"/><stop offset="1" stop-color="#8A3AC8"/></radialGradient><radialGradient id="paint1_radial_253_69" cx="0" cy="0" r="1" gradientUnits="userSpaceOnUse" gradientTransform="rotate(-65.136 41.859 9.688) scale(31.7731)"><stop stop-color="#E0E8B7"/><stop offset=".445" stop-color="#FB8A2E"/><stop offset=".715" stop-color="#E2425C"/><stop offset="1" stop-color="#E2425C" stop-opacity="0"/></radialGradient><radialGradient id="paint2_radial_253_69" cx="0" cy="0" r="1" gradientUnits="userSpaceOnUse" gradientTransform="rotate(-8.13 30.033 -2.837) scale(54.6903 11.6977)"><stop offset=".157" stop-color="#406ADC"/><stop offset=".468" stop-color="#6A45BE"/><stop offset="1" stop-color="#6A45BE" stop-opacity="0"/></radialGradient></defs></svg>