<svg width="30" height="38" fill="none" xmlns="http://www.w3.org/2000/svg"><path d="M.594.625C.5.656.344.797.234.922l-.172.219v33.406l.391.016.39.015-.39.078c-.39.078-.39.094-.344.344.172.766.688 1.719 1.125 2.063.61.453 1.641.515 2.407.14.796-.375 2-1.703 3.171-3.437.266-.407.547-.782.625-.797.188-.078.47.203 1.266 1.25 1.36 1.781 2.094 2.312 3.14 2.234 1.032-.078 1.72-.687 2.798-2.516 1.28-2.156 1.578-2.25 2.218-.64.657 1.656 1.297 2.531 2.11 2.906 1.047.484 1.812.047 2.875-1.687.515-.828.953-1.344 1.14-1.344.172 0 .578.422 1.22 1.281 1.14 1.531 1.905 2.078 2.983 2.156.86.063 1.157-.062 1.938-.78l.656-.626-.36-.312-.358-.313.437-.016h.422V1.126L29.687.86l-.234-.265L15.11.563C7.22.563.672.578.594.625zm27.61 17.672v16.031l-.267.266c-.203.203-.343.265-.546.265-.532 0-.891-.312-1.75-1.437-.438-.594-.938-1.203-1.11-1.36-1.047-.906-2.375-.812-3.281.25-.188.204-.594.797-.922 1.313-.328.516-.625.953-.687.969-.157.062-.61-.688-.985-1.64-.203-.5-.468-1.063-.578-1.267-.422-.734-1.281-1.265-2.015-1.265-1 0-1.797.703-2.891 2.547-1.328 2.234-1.485 2.265-2.875.437C9 31.703 8.407 31.281 7.39 31.344c-.485.031-.625.078-1 .343-.454.313-.594.485-1.641 2-.594.844-1.453 1.735-1.906 1.985-.375.203-.516.14-.797-.375l-.203-.36-.032-16.328-.015-16.343h26.406v16.03z" fill="#fff"/><path d="M7.984 7.594v.86h14.032v-1.72H7.984v.86zm0 6.156v.906h14.032v-1.812H7.984v.906zm0 7.047v.86h14.032v-1.72H7.984v.86z" fill="#fff"/></svg>