<svg width="22" height="22" fill="none" xmlns="http://www.w3.org/2000/svg"><path d="M6.334 17.178C6.875 19.59 8.8 21.312 11 21.312s4.125-1.722 4.666-4.134a2.062 2.062 0 00.924-3.781c.458-2.16.18-3.824-.843-5.066l.676-.828a.343.343 0 00-.328-.555l-1.586.291-.571-1.388a.344.344 0 00-.631-.011l-.406.9a5.388 5.388 0 00-4.805.172c-2.467 1.234-3.345 3.36-2.684 6.484a2.062 2.062 0 00.922 3.783zM11 20.625c-1.532 0-2.906-1-3.618-2.51.451-.571 1.604-1.936 3.405-2.268a1.22 1.22 0 01.426 0c1.8.331 2.954 1.696 3.405 2.269-.712 1.509-2.086 2.509-3.618 2.509zM8.404 7.528c2.526-1.263 4.39-.072 4.468-.022a.344.344 0 00.505-.144l.23-.51.373.907a.342.342 0 00.38.207l.94-.172-.269.33a.344.344 0 00.016.452c.997 1.063 1.292 2.555.897 4.545a2.058 2.058 0 00-.475-.059v-1.03a.344.344 0 00-.275-.338c-1.573-.315-2.88-1.925-2.893-1.94a.343.343 0 00-.588.087c-.497 1.246-3.678 1.756-4.863 1.848a.344.344 0 00-.319.342v1.031c-.16.001-.32.02-.477.058-.546-2.737.208-4.523 2.35-5.592zM6.53 13.75c.091 0 .182.008.271.027a.348.348 0 00.383-.188.344.344 0 00.034-.148v-1.097c1.007-.106 3.84-.515 4.866-1.798a6.425 6.425 0 002.696 1.756v1.139a.342.342 0 00.265.334c.05.012.102.012.152.002a1.375 1.375 0 11.27 2.723h-.044a.341.341 0 00-.38.281 5.4 5.4 0 01-.144.597 6.3 6.3 0 00-3.563-2.204 1.867 1.867 0 00-.674 0A6.3 6.3 0 007.1 17.378a5.39 5.39 0 01-.144-.597.349.349 0 00-.344-.283c-.012 0-.024 0-.036.002H6.53a1.375 1.375 0 010-2.75z" fill="#22A5E6"/><path d="M8.766 14.438a.516.516 0 100-1.032.516.516 0 000 1.031zm4.468 0a.516.516 0 100-1.032.516.516 0 000 1.031zM9.86 17.205l.217.654a2.94 2.94 0 011.846 0l.217-.654a3.616 3.616 0 00-2.28 0zm0 1.375l.217.654a2.94 2.94 0 011.846 0l.217-.654a3.616 3.616 0 00-2.28 0zm9.734-12.298c-.004-.48-.14-.95-.393-1.358l-.59.352c.188.302.29.65.295 1.006 0 .876-.67 1.74-1.888 2.43l.339.597c1.442-.818 2.237-1.892 2.237-3.027zM11 1.813a15.98 15.98 0 00-3.162.307l.137.674c.996-.198 2.01-.296 3.025-.294 1.479-.011 2.95.205 4.363.64l.211-.652A15.092 15.092 0 0011 1.813zM4.643 9.31l.339-.599c-1.218-.69-1.888-1.553-1.888-2.43.018-.532.233-1.04.602-1.424l-.517-.453a2.826 2.826 0 00-.773 1.878c0 1.135.795 2.209 2.237 3.027zM2.752 3.376a.344.344 0 00.22.288l1.248.471.32 1.295a.344.344 0 00.601.133l.834-1.041 1.33.096a.344.344 0 00.312-.531l-.733-1.115.503-1.235a.344.344 0 00-.409-.461l-1.286.352-1.02-.86a.344.344 0 00-.565.247l-.062 1.332-1.134.704a.344.344 0 00-.16.325zm1.81-.54a.344.344 0 00.161-.275l.039-.817.625.525a.346.346 0 00.312.068l.789-.216-.31.757a.344.344 0 00.031.318l.45.684-.815-.057a.338.338 0 00-.293.128l-.511.638-.196-.794a.344.344 0 00-.213-.24l-.765-.29.696-.43zm13.411.494l1.354-.235.118.677-1.355.235-.117-.677zm-2.709.471l1.354-.235.118.677-1.354.235-.118-.677zm1.401-1.999l.677-.118.236 1.354-.677.118-.236-1.354zm.472 2.708l.677-.118.237 1.355-.677.118-.237-1.354z" fill="#22A5E6"/></svg>