<svg width="40" height="40" fill="none" xmlns="http://www.w3.org/2000/svg"><g clip-path="url(#clip0_253_61)"><path d="M14.178.99h11.663C36.495.99 39.01 3.525 39.01 14.178v11.664c0 10.653-2.535 13.168-13.188 13.168H14.158C3.505 39.01.99 36.475.99 25.822V14.159C.99 3.525 3.525.99 14.178.99z" fill="#5181B8"/><mask id="a" style="mask-type:luminance" maskUnits="userSpaceOnUse" x="0" y="0" width="40" height="40"><path d="M14.178.99h11.663C36.495.99 39.01 3.525 39.01 14.178v11.664c0 10.653-2.535 13.168-13.188 13.168H14.158C3.505 39.01.99 36.475.99 25.822V14.159C.99 3.525 3.525.99 14.178.99z" fill="#fff"/></mask><g mask="url(#a)"><path d="M0 0h40v40H0V0z" fill="#5181B8"/></g><path fill-rule="evenodd" clip-rule="evenodd" d="M32.119 14.08c.178-.595 0-1.01-.832-1.01h-2.772c-.713 0-1.03.376-1.208.791 0 0-1.406 3.446-3.406 5.664-.653.653-.93.851-1.287.851-.178 0-.436-.198-.436-.792V14.08c0-.713-.198-1.01-.792-1.01H17.03c-.436 0-.713.337-.713.634 0 .673.99.832 1.109 2.693v4.08c0 .89-.159 1.049-.515 1.049-.93 0-3.228-3.446-4.574-7.406-.277-.733-.535-1.05-1.248-1.05H8.317c-.792 0-.95.377-.95.792 0 .733.93 4.377 4.376 9.188 2.297 3.288 5.524 5.07 8.455 5.07 1.762 0 1.98-.396 1.98-1.07v-2.494c0-.793.159-.951.733-.951.416 0 1.109.198 2.752 1.782 1.882 1.881 2.198 2.733 3.248 2.733h2.772c.792 0 1.188-.396.95-1.168-.257-.773-1.148-1.902-2.336-3.248-.653-.772-1.624-1.584-1.9-2-.417-.535-.298-.772 0-1.228 0-.02 3.385-4.772 3.722-6.396z" fill="#fff"/></g><defs><clipPath id="clip0_253_61"><path fill="#fff" d="M0 0h40v40H0z"/></clipPath></defs></svg>