<svg width="28" height="28" fill="none" xmlns="http://www.w3.org/2000/svg"><path d="M14.047 2.333c-6.37 0-11.562 5.192-11.562 11.562 0 2.042.537 4.025 1.54 5.775l-1.633 5.997 6.125-1.61a11.564 11.564 0 005.53 1.411c6.37 0 11.561-5.191 11.561-11.561a11.49 11.49 0 00-3.383-8.179 11.452 11.452 0 00-8.178-3.395zm.011 1.949a9.532 9.532 0 016.79 2.823 9.596 9.596 0 012.812 6.802c0 5.296-4.317 9.601-9.613 9.601a9.453 9.453 0 01-4.889-1.341l-.35-.199-3.64.957.969-3.547-.234-.373a9.552 9.552 0 01-1.47-5.11c.012-5.297 4.317-9.613 9.625-9.613zm-4.106 4.27c-.187 0-.502.07-.77.361-.257.292-1.015 1.004-1.015 2.415 0 1.424 1.038 2.789 1.166 2.987.164.198 2.054 3.115 4.959 4.352.688.315 1.225.49 1.645.618.688.222 1.318.187 1.82.117.56-.082 1.703-.7 1.948-1.377.245-.677.245-1.248.175-1.377-.082-.116-.268-.186-.56-.315-.292-.163-1.715-.863-1.972-.956-.268-.094-.431-.14-.653.14-.187.291-.747.945-.91 1.131-.175.199-.338.222-.618.082-.304-.152-1.237-.455-2.334-1.435-.863-.77-1.435-1.715-1.61-2.007-.14-.28-.011-.455.129-.583a3.8 3.8 0 00.431-.513c.152-.164.199-.292.292-.479.093-.198.047-.361-.023-.501-.07-.129-.654-1.575-.899-2.147-.233-.56-.466-.49-.653-.502-.163 0-.35-.011-.548-.011z" fill="#289A00"/></svg>