<svg width="22" height="22" fill="none" xmlns="http://www.w3.org/2000/svg"><g clip-path="url(#clip0_326_752)" fill="#22A5E6"><path d="M19.75 14.113a.835.835 0 00.605-.363c.383-.555 1.504-2.53 1.63-4.278.147-2.073-.765-4.484-1.498-6.423-.37-.973-.721-1.9-.742-2.362.204 0 .478.045.622-.14a.344.344 0 00-.086-.489c-.182-.122-.515-.055-.713-.043-.23.014-.46.039-.688.076a3.898 3.898 0 00-1.68.65 3.58 3.58 0 00-.442.392c-.86.859-1.24 1.986-1.294 3.19-.024.526-.01 1.05-.062 1.574a7.983 7.983 0 01-.325 1.641 4.756 4.756 0 01-.913 1.688 11.693 11.693 0 01-1.645 1.43c-1.014.787-1.971 1.53-2.212 2.489-.29 1.164.274 2.76.646 3.817.097.272.172.506.214.645a.342.342 0 00.417.25.344.344 0 00.25-.415 3.54 3.54 0 00-.085-.282c.323-.172 1.324-.38 2.27-.282.72.074 1.376-.43 1.548-1.203l.343-1.097a.344.344 0 00.014-.06.15.15 0 01.126-.132l.61-.046v1.3h-.172a.344.344 0 00-.332.224l-.515 1.375v.014a.458.458 0 00-.012.046.2.2 0 000 .031.228.228 0 000 .048.2.2 0 000 .031v.01l.515 2.922a.343.343 0 00.344.284h.515v1.031c0 .444.688.444.688 0v-1.031h.688v1.031c0 .444.687.444.687 0v-1.031h.516a.344.344 0 00.343-.284l.516-2.922v-.01a.2.2 0 010-.03.43.43 0 000-.049v-.03a.458.458 0 00-.012-.047v-.014l-.516-1.375a.344.344 0 00-.321-.223h-.172v-1.503l.33-.025zm-3.766-.4a.843.843 0 00-.744.699l-.333 1.082v.026c-.085.372-.392.726-.812.688-.76-.078-1.91.019-2.566.318-.325-.93-.771-2.312-.55-3.202.183-.727 1.049-1.4 1.967-2.11a12.41 12.41 0 001.74-1.527c.765-.875 1.154-2.016 1.333-3.149.079-.52.121-1.044.127-1.57a7.208 7.208 0 01.156-1.685c.16-.629.487-1.202.947-1.659.256-.256.688-.687 1.817-.86.041.577.363 1.427.784 2.54.708 1.875 1.591 4.207 1.454 6.13-.134 1.869-1.495 3.916-1.51 3.934a.153.153 0 01-.1.066l-3.71.278zm3.306 6.225h-2.517l-.393-2.235h3.305l-.395 2.235zm.304-2.922h-3.128l.257-.688h2.618l.253.688zm-.88-1.375h-1.375v-1.343l1.375-.106v1.449z"/><path d="M18.707 8.699c-.756-.277-1.636.223-1.961 1.112-.325.888.026 1.84.782 2.115.844.308 1.68-.343 1.963-1.112.324-.89-.028-1.84-.784-2.115zm.137 1.878c-.196.535-.687.851-1.08.705-.394-.146-.568-.701-.374-1.234.151-.414.597-.882 1.081-.705.4.146.567.701.373 1.234zM5.558 14.84a2.28 2.28 0 01-2.12-1.45 2.986 2.986 0 01-2.75-4.664A3.706 3.706 0 012.21 3.181 2.989 2.989 0 016.96.58a2.269 2.269 0 013.588 2.386c0 .02-.012.04-.02.058a.345.345 0 01-.432.243.344.344 0 01-.229-.423l.012-.038A1.58 1.58 0 007.22 1.27a.344.344 0 01-.48.017A2.3 2.3 0 002.922 3.35a.344.344 0 01-.224.378 3.02 3.02 0 00-1.313 4.776.344.344 0 010 .44 2.303 2.303 0 001.158 3.688c.349.097.714.109 1.068.035a.344.344 0 01.404.26 1.582 1.582 0 003.064.062l.01-.052a.345.345 0 11.671.16c0 .034-.012.053-.017.074a2.276 2.276 0 01-2.185 1.669z"/><path d="M12.854 8.303a3.48 3.48 0 01-1.307-.225 2.776 2.776 0 00-1.082-.187c-.37 0-.736.063-1.084.187a3.934 3.934 0 01-1.303.224 3.517 3.517 0 01-1.313-.224 2.788 2.788 0 00-1.083-.189c-.443 0-.443-.687 0-.687a3.48 3.48 0 011.308.226 2.82 2.82 0 001.088.186c.37 0 .736-.064 1.085-.187a3.367 3.367 0 011.308-.225 3.47 3.47 0 011.306.225c.345.134.713.198 1.083.189.438 0 .438.687-.005.687zm1.568-2.413c-.446.01-.89-.064-1.308-.218a2.77 2.77 0 00-1.083-.198c-.37 0-.736.064-1.084.188-.42.148-.863.224-1.308.225a3.523 3.523 0 01-1.308-.225 2.788 2.788 0 00-1.083-.19c-.443 0-.443-.687 0-.687a3.48 3.48 0 011.308.227 2.82 2.82 0 001.083.187c.37 0 .736-.063 1.084-.187.42-.149.863-.225 1.308-.225.446-.01.89.068 1.306.227a2.82 2.82 0 001.083.189c.446 0 .446.687.002.687zm-3.144 4.794a3.464 3.464 0 01-1.31-.227 2.824 2.824 0 00-1.082-.187c-.37 0-.736.063-1.085.187-.42.148-.862.225-1.308.225a3.483 3.483 0 01-1.308-.227 2.813 2.813 0 00-1.082-.189c-.444 0-.444-.687 0-.687.446-.008.89.07 1.308.226.344.135.712.199 1.082.19.37-.001.737-.064 1.085-.188.42-.148.862-.225 1.308-.225a3.54 3.54 0 011.308.225 2.77 2.77 0 001.08.19c.448 0 .448.687.004.687z"/></g><defs><clipPath id="clip0_326_752"><path fill="#fff" d="M0 0h22v22H0z"/></clipPath></defs></svg>