<svg width="22" height="22" fill="none" xmlns="http://www.w3.org/2000/svg"><g clip-path="url(#clip0_326_730)" fill="#22A5E6"><path d="M12.064 11.355a1.42 1.42 0 00-1.42-1.42 1.42 1.42 0 00-1.419 1.42 1.42 1.42 0 002.839 0zm-2.129 0a.71.71 0 111.42.002.71.71 0 01-1.42-.002z"/><path d="M20.16 2.942l-.091-.016a1.206 1.206 0 01-.996-.995l-.015-.091A2.194 2.194 0 0016.888 0a2.204 2.204 0 00-2.184 1.928 2.837 2.837 0 01-.309.975 6.36 6.36 0 00-5.51 6.035l-.3-.06-.07-.007c-1.912 0-3.69.862-4.875 2.364L.335 15.42a1.564 1.564 0 00-.335.964v.155a1.559 1.559 0 002.765.982l3.357-4.132a2.614 2.614 0 011.896-.963 2.85 2.85 0 001.555 1.555 2.612 2.612 0 01-.963 1.896l-4.132 3.357A1.559 1.559 0 005.46 22h.155c.348 0 .691-.119.965-.334l4.186-3.306a6.179 6.179 0 002.363-4.876l-.07-.368a6.341 6.341 0 006.044-5.56 2.83 2.83 0 01.832-.242l.137-.017A2.204 2.204 0 0022 5.113a2.194 2.194 0 00-1.84-2.171zm-6.476.83l-1.241 1.063a1.083 1.083 0 00-.038 1.609 5.92 5.92 0 00-.673 2.29 2.825 2.825 0 00-2.128-.017 5.657 5.657 0 014.08-4.945zm1.426 4.341a1.098 1.098 0 00-.207.645v.07c0 .094.015.184.037.271a5.222 5.222 0 01-2.087.477 2.856 2.856 0 00-.432-.431 5.214 5.214 0 01.635-2.412c.03.003.06.01.092.01h.142c.188 0 .374-.05.538-.144l2.13-1.217a.454.454 0 01.223-.06h.044a.452.452 0 01.368.715L15.11 8.113zM2.214 17.075A.848.848 0 01.71 16.54v-.155a.85.85 0 01.183-.524l.64-.81 1.51 1.005-.828 1.019zm3.357-4.132l-2.08 2.56-1.518-1.012 2.224-2.817a5.467 5.467 0 014.233-2.09 2.823 2.823 0 00-.624 1.771c0 .127.012.25.028.373a3.319 3.319 0 00-2.263 1.215zm2.945-1.588c0-1.174.955-2.129 2.129-2.129s2.129.955 2.129 2.13a2.131 2.131 0 01-2.13 2.128 2.131 2.131 0 01-2.128-2.129zM6.14 21.108a.85.85 0 01-.525.183H5.46a.848.848 0 01-.534-1.505l1.401-1.139 1.01 1.516-1.197.945zm4.186-3.305l-2.43 1.919-1.016-1.524 2.178-1.77a3.319 3.319 0 001.214-2.262c.122.017.246.028.373.028a2.82 2.82 0 001.77-.624 5.47 5.47 0 01-2.09 4.233zm2.957-5.407a2.822 2.822 0 00-.017-2.128 5.949 5.949 0 002.074-.564 1.098 1.098 0 001.453-.092l1.483-1.483a5.634 5.634 0 01-4.993 4.267zm6.7-5.803l-.137.017a3.553 3.553 0 00-2.064 1.01l-1.49 1.49a.398.398 0 01-.68-.281v-.071c0-.084.026-.163.075-.232L17.17 6.45a1.162 1.162 0 00-.945-1.836h-.044c-.202 0-.401.053-.577.153l-2.13 1.217a.372.372 0 01-.185.05h-.142a.375.375 0 01-.244-.659l1.294-1.11a3.531 3.531 0 001.21-2.248A1.494 1.494 0 0116.887.71c.731 0 1.35.524 1.47 1.246l.016.091a1.914 1.914 0 001.579 1.58l.092.015c.72.12 1.245.739 1.245 1.47 0 .751-.562 1.387-1.306 1.48z"/></g><defs><clipPath id="clip0_326_730"><path fill="#fff" d="M0 0h22v22H0z"/></clipPath></defs></svg>