<svg width="24" height="29" fill="none" xmlns="http://www.w3.org/2000/svg"><path d="M11.169.025c-.723.045-1.817.227-2.354.39a14.459 14.459 0 00-1.419.487c-1.31.571-2.15 1.082-3.16 1.924-.51.424-1.36 1.302-1.701 1.76a1.506 1.506 0 01-.074.094c-.066.064-.449.618-.698 1.009A12.898 12.898 0 00.655 7.996c-.043.1-.223.682-.268.867-.015.066-.039.154-.05.195-.09.328-.204.923-.251 1.31-.02.147-.045.36-.06.471-.035.28-.035 2.022.002 2.297.068.562.114.877.133.965.013.054.04.193.064.312.198.993.555 2.023 1.03 2.961a11.75 11.75 0 001.843 2.674c.35.389.507.528.675.608.133.064.15.066.42.066.268 0 .285-.002.418-.066a.986.986 0 00.56-1.052c-.041-.255-.117-.384-.403-.68-.34-.357-.651-.73-.935-1.123-.823-1.137-1.447-2.588-1.696-3.936a7.297 7.297 0 01-.116-.815 6.366 6.366 0 00-.043-.38c-.022-.088-.011-1.294.01-1.483l.054-.476a9.07 9.07 0 01.26-1.32 8.44 8.44 0 01.245-.775c0-.09.465-1.123.663-1.468a9.983 9.983 0 011.722-2.254 9.702 9.702 0 012.704-1.923 6.667 6.667 0 01.443-.201 10.446 10.446 0 012.38-.676c.136-.017.31-.043.387-.054.52-.081 1.78-.081 2.3 0 .078.013.267.04.42.064 1.623.239 3.287.966 4.631 2.022a10.86 10.86 0 011.563 1.53c.243.296.467.61.774 1.084.144.225.632 1.142.632 1.19 0 .006.024.063.054.128.03.064.054.122.054.129 0 .008.02.053.04.105.067.144.164.416.24.659.036.124.077.249.085.279.022.055.123.463.18.719.05.216.12.66.158 1.019.047.436.047 1.61 0 2.039a9.98 9.98 0 01-.768 2.93c-.021.047-.06.132-.086.193-.155.356-.481.942-.737 1.328a9.77 9.77 0 01-1.037 1.322c-.07.077-2.072 2.078-4.45 4.447l-4.321 4.305.688.689c.449.45.703.689.73.689.03 0 1.488-1.445 4.421-4.372a676.143 676.143 0 004.55-4.569c.214-.243.619-.75.803-1.007.712-.989 1.333-2.225 1.675-3.326.3-.96.454-1.764.54-2.8.028-.348.015-1.735-.022-1.986a33.858 33.858 0 01-.056-.43 10.446 10.446 0 00-.15-.911 25.667 25.667 0 00-.194-.794 13.384 13.384 0 00-.513-1.45c-.028-.06-.071-.16-.101-.224-.215-.5-.695-1.344-1.063-1.874-.1-.144-.49-.661-.537-.715l-.108-.128a12.136 12.136 0 00-4.31-3.273l-.333-.148c-.304-.138-1.084-.397-1.591-.528a12.446 12.446 0 00-3.838-.35z" fill="#8E479B"/><path d="M9.37 6.626c-.029.086-.86 2.192-.889 2.25l-.14.354c-.066.171-.133.343-.152.382-.028.066-.082.2-.237.605a4.35 4.35 0 01-.086.208.36.36 0 00-.03.082.417.417 0 01-.032.081c-.015.039-.161.401-.322.81l-.478 1.201c-.1.253-.256.644-.344.87l-.182.46-.09.226-.07.172-.455.006-.456.004.004.597.007.595h4.665l.006-.597.005-.595h-.346c-.32 0-.346-.002-.336-.038.007-.02.08-.234.166-.477.086-.242.172-.493.195-.558.089-.266.254-.731.271-.761.02-.033.041.002.35.515.158.26.38.624.55.9.085.143.22.364.3.495.772 1.274.722 1.193.75 1.184.022-.006.08-.1.415-.648l.372-.612.301-.493.301-.494c.134-.219.308-.504.385-.637.077-.133.146-.24.153-.243.006 0 .07.172.144.38.127.367.398 1.142.48 1.374l.04.113H13.9v1.202h4.666v-1.202h-.897l-.026-.057a6.091 6.091 0 01-.1-.254 50.855 50.855 0 01-.342-.858 37.09 37.09 0 00-.248-.623c-.01-.023-.103-.255-.204-.515-.101-.26-.194-.491-.204-.515a19.898 19.898 0 01-.204-.515c-.102-.26-.194-.491-.205-.515l-.142-.354a78.102 78.102 0 00-.385-.977c-.146-.367-.305-.772-.354-.9a3.465 3.465 0 00-.108-.258.62.62 0 01-.043-.108 1.95 1.95 0 00-.053-.15c-.018-.036-.112-.277-.216-.537-.193-.493-.242-.611-.258-.611-.012 0-.193.305-.451.762l-.269.472c-.105.182-.391.684-.462.815a23.181 23.181 0 00-.424.73 196.21 196.21 0 01-.782 1.37 1.327 1.327 0 00-.073.132.75.75 0 01-.063.108l-.062.098-.075-.124c-.041-.069-.095-.159-.118-.2l-.52-.912c-.063-.11-.375-.652-.519-.908a155.521 155.521 0 01-.787-1.378l-.088-.152a37.295 37.295 0 01-.26-.455c-.11-.197-.209-.358-.22-.358-.012 0-.025.017-.034.036z" fill="#8E479B"/></svg>