<svg width="35" height="35" fill="none" xmlns="http://www.w3.org/2000/svg"><path d="M29.566 7.122h-2.682V5.434A4.687 4.687 0 0022.197.747h-9.375a4.687 4.687 0 00-4.688 4.687v1.688h-2.7a4.688 4.688 0 00-4.687 4.687v17.757a4.687 4.687 0 004.687 4.687h24.132a4.689 4.689 0 004.687-4.687V11.809a4.689 4.689 0 00-4.687-4.687zM10.009 5.434a2.812 2.812 0 012.813-2.812h9.375a2.813 2.813 0 012.812 2.812v1.688h-15V5.434zm22.37 24.132a2.812 2.812 0 01-2.813 2.812H5.434a2.812 2.812 0 01-2.812-2.812V11.809a2.812 2.812 0 012.812-2.812h24.132a2.812 2.812 0 012.812 2.812v17.757z" fill="#fff"/><path d="M22.197 20.64a.937.937 0 01-.938.938h-2.812v2.813a.937.937 0 11-1.875 0v-2.813h-2.813a.937.937 0 110-1.875h2.813v-2.812a.937.937 0 01.937-.938.953.953 0 01.938.938v2.812h2.812a.953.953 0 01.938.938z" fill="#fff"/></svg>