<svg width="22" height="22" fill="none" xmlns="http://www.w3.org/2000/svg"><path d="M20.676 11.428a1.414 1.414 0 00-1.382-1.133h-.565a6.81 6.81 0 001.08-3.665v-.347a2.332 2.332 0 00-2.33-2.33h-.155c-.461 0-.918.143-1.322.412-.288.191-.555.293-.774.293-.218 0-.486-.102-.773-.293a2.385 2.385 0 00-1.322-.412h-.155A2.33 2.33 0 0011 5.057a2.329 2.329 0 00-1.977-1.104h-.155c-.461 0-.918.143-1.322.412-.288.191-.556.293-.774.293-.219 0-.486-.102-.773-.293a2.385 2.385 0 00-1.322-.412h-.155a2.332 2.332 0 00-2.33 2.33v.347c0 1.3.38 2.576 1.08 3.665h-.566c-.67 0-1.251.477-1.382 1.133L0 18.047h22l-1.324-6.619zm-2.904-1l-.96 2.51a.272.272 0 01-.527-.095v-2.9a1.058 1.058 0 00-2.114 0v2.899a.272.272 0 01-.527.095l-.905-2.413-.054-.096a6.101 6.101 0 01-1.268-2.951h2.05v.705h3.523v-.705h2.049a6.098 6.098 0 01-1.267 2.95zM14.17 7.477v-.705h2.114v.705H14.17zm-2.819-1.194c0-.896.73-1.625 1.625-1.625h.155c.322 0 .644.101.932.293.818.546 1.51.546 2.328 0a1.68 1.68 0 01.931-.293h.155c.897 0 1.626.729 1.626 1.625v.347c0 .047-.005.094-.006.142H16.99v-.705h-3.524v.705h-2.108c0-.048-.006-.094-.006-.142v-.347zM11 8.773a6.82 6.82 0 00.727 1.522h-1.454c.305-.475.549-.987.727-1.521zM2.896 6.63v-.347c0-.896.73-1.625 1.625-1.625h.155c.322 0 .644.101.931.293.82.546 1.51.546 2.33 0 .287-.192.609-.293.93-.293h.155c.897 0 1.626.729 1.626 1.625v.347c0 .047-.005.094-.006.142H8.534v-.705H5.01v.705H2.902c0-.048-.006-.094-.006-.142zm4.933.142v.705H5.715v-.705h2.114zm-4.868.705h2.05v.704h3.522v-.704h2.049a6.099 6.099 0 01-1.268 2.95l-.96 2.51a.272.272 0 01-.527-.095V9.943a1.056 1.056 0 10-2.113 0v2.899a.272.272 0 01-.527.095l-.905-2.413-.054-.096A6.098 6.098 0 012.96 7.477zm-.946 4.09A.707.707 0 012.706 11h1.003l.82 2.185c.142.379.51.634.914.634a.978.978 0 00.977-.977V9.943a.353.353 0 01.704 0v2.899a.978.978 0 001.892.343L9.835 11h2.33l.82 2.185c.142.379.51.634.914.634a.978.978 0 00.977-.977V9.943a.353.353 0 01.704 0v2.899a.978.978 0 001.892.343L18.29 11h1.003c.335 0 .625.238.691.567l1.155 5.775H.86l1.155-5.776z" fill="#22A5E6"/></svg>