<svg width="40" height="40" fill="none" xmlns="http://www.w3.org/2000/svg"><g clip-path="url(#clip0_239_432)"><path d="M3.407 8.114l1.094-.238A2.339 2.339 0 006.29 5.1l-.576-2.657A2.351 2.351 0 003.429.602c-.166 0-.332.017-.494.053L1.841.892a2.315 2.315 0 00-1.467 1.02 2.315 2.315 0 00-.32 1.757L.63 6.326a2.35 2.35 0 002.284 1.84c.165 0 .331-.017.493-.052zM1.912 6.048l-.576-2.657a1.014 1.014 0 01.142-.77 1.01 1.01 0 01.641-.447l1.094-.237a1.03 1.03 0 011.217.783l.577 2.656a1.026 1.026 0 01-.784 1.218l-1.094.238a1.038 1.038 0 01-1.217-.784zm37.404 22.305L28.992 18.05c-.774-.773-2.237-1.378-3.331-1.378h-2.25v-2.257c1.288 0 2.337-.942 2.337-2.1 0-1.157-1.049-2.099-2.337-2.099h-6.583c-1.288 0-2.336.942-2.336 2.1 0 1.157 1.048 2.1 2.336 2.1v2.259h-.38c-.75 0-1.872-.466-2.403-.996l-6.51-6.51c-.88-.879-2.424-.878-3.303 0l-.792.793a2.319 2.319 0 00-.681 1.651c0 .625.242 1.212.682 1.651l7.831 7.82c.775.774 2.238 1.38 3.332 1.38h4.86V27.8H16.76a.656.656 0 00-.656.656v2.703H14.66a2.338 2.338 0 00-2.335 2.335v3.57a2.338 2.338 0 002.335 2.335h13.437a2.339 2.339 0 002.336-2.336v-3.569a2.339 2.339 0 00-2.336-2.335h-1.443v-2.703a.656.656 0 00-.656-.656h-2.703v-5.336h.536c.75 0 1.872.465 2.403.995l8.989 8.989c.44.44 1.025.682 1.652.682.625 0 1.212-.242 1.651-.682l.792-.792c.44-.44.682-1.026.682-1.651a2.32 2.32 0 00-.685-1.652zM15.804 12.316c0-.427.469-.788 1.024-.788h6.583c.555 0 1.024.361 1.024.788 0 .426-.469.787-1.024.787h-6.583c-.555 0-1.024-.36-1.024-.787zm2.336 2.1h3.96v2.257l-3.96.002v-2.26zm10.98 19.077v3.569c0 .564-.46 1.023-1.024 1.023H14.66c-.565 0-1.024-.46-1.024-1.023v-3.57c0-.564.459-1.023 1.024-1.023h13.436c.565 0 1.024.46 1.024 1.024zm-3.779-2.336h-7.926V29.11h7.926v2.047zM21.983 27.8h-1.208v-5.336h1.208V27.8zm1.849-6.648h-9.229c-.75 0-1.873-.465-2.403-.995l-7.831-7.82a1.012 1.012 0 01-.298-.724c0-.274.106-.531.297-.723l.792-.792a1.02 1.02 0 01.724-.298c.275 0 .532.106.724.298l6.51 6.51c.774.773 2.237 1.38 3.331 1.38h.38v1.475a.656.656 0 101.311 0v-1.477h3.96v1.476a.656.656 0 101.312 0v-1.477l2.25-.001c.75 0 1.873.464 2.405.994l8.483 8.466-2.149 2.323-7.238-7.236c-.774-.773-2.238-1.379-3.331-1.379zm14.559 9.577l-.792.792a1.054 1.054 0 01-1.447 0l-.823-.823 2.15-2.324.911.91c.192.19.298.447.298.722 0 .274-.106.53-.297.723z" fill="#fff"/></g><defs><clipPath id="clip0_239_432"><path fill="#fff" d="M0 0h40v40H0z"/></clipPath></defs></svg>