<svg width="21" height="22" fill="none" xmlns="http://www.w3.org/2000/svg"><path d="M16.866 12.944a.425.425 0 00-.032-.001h-.95c.134-.152.82-.872.84-.9.859-.94 1.746-2.156 1.746-4.236 0-1.507-.529-2.936-1.49-4.024a4.21 4.21 0 00-.19-.2c-1.544-1.535-3.887-1.875-5.83-.846-.45.238-1.27.238-1.72 0-1.943-1.029-4.286-.689-5.83.846a4.264 4.264 0 00-.19.2C2.26 4.871 1.73 6.3 1.73 7.807c0 2.41 1.19 3.66 2.147 4.663.156.164.304.32.439.471H3.39l-.028.001C1.477 13.067 0 14.666 0 16.582v4.988c0 .238.192.43.43.43h19.34a.43.43 0 00.43-.43v-4.988c0-.926-.343-1.809-.965-2.486a3.57 3.57 0 00-2.369-1.152zm-5.503-9.448c1.608-.851 3.546-.571 4.822.697.056.055.107.109.151.16.822.93 1.275 2.157 1.275 3.454 0 1.71-.695 2.734-1.442 3.569-1.087.07-2.108.128-2.658-.422-.434-.435-.323-.771.079-1.552.354-.69.84-1.634-.079-2.553-.85-.851-1.575-.739-2.158-.648-.508.079-.876.136-1.418-.407-.451-.451-.367-1.079-.125-2.03.546.05 1.123-.04 1.553-.268zM2.59 7.807c0-1.297.452-2.524 1.274-3.455a4.063 4.063 0 013.023-1.345c.661 0 1.33.16 1.95.49.045.022.09.044.137.065-.25.975-.449 2.037.353 2.84.851.851 1.576.739 2.158.648.509-.079.876-.136 1.418.407.435.435.324.77-.078 1.552-.354.69-.84 1.633.079 2.552.583.584 1.39.718 2.25.718.057 0 .114 0 .172-.002-.545.6-.988 1.216-.988 2.046v.789c0 1.848-.98 3.315-2.487 3.803V14.27a1.759 1.759 0 00-1.768-1.764A1.763 1.763 0 008.35 14.27v4.644c-1.508-.488-2.488-1.954-2.488-3.803v-.789c0-1.015-.662-1.71-1.363-2.445-.895-.94-1.91-2.005-1.91-4.07zm16.75 13.334H.86v-4.559c0-1.46 1.118-2.68 2.547-2.781H4.9c.066.167.104.339.104.522v.789c0 1.184.34 2.263.985 3.122a4.217 4.217 0 002.72 1.65.43.43 0 00.501-.423v-5.19c0-.494.396-.9.882-.905a.87.87 0 01.631.257c.174.172.27.402.27.649v5.189a.43.43 0 00.5.424 4.218 4.218 0 002.72-1.651c.645-.859.986-1.938.986-3.122v-.789c0-.183.037-.354.103-.52h1.517c1.416.113 2.523 1.331 2.523 2.78v4.558zm-.553-18.639c.11 0 .22-.041.303-.125l.437-.435a.43.43 0 00-.607-.609l-.437.435a.43.43 0 00.304.734zm-2.491-1.027a.43.43 0 00.43-.43V.43a.43.43 0 10-.86 0v.615c0 .237.193.43.43.43zm4.14 2.649h-.618a.43.43 0 100 .86h.618a.43.43 0 100-.86z" fill="#22A5E6"/></svg>