<svg width="33" height="32" fill="none" xmlns="http://www.w3.org/2000/svg"><path d="M28.655.205c-1.15.108-3.888.357-6.096.56-2.193.202-4.044.388-4.122.435-.062.031-4.214 4.152-9.238 9.145-6.314 6.283-9.145 9.145-9.176 9.3a1.102 1.102 0 000 .451c.063.265 11.54 11.742 11.867 11.867.109.046.31.046.45.015.203-.046 2.318-2.1 9.332-9.098 4.993-4.977 9.13-9.13 9.176-9.238.063-.109.343-2.473.716-6.206.342-3.312.638-6.143.653-6.283.062-.357-.078-.793-.342-.995-.249-.218-.482-.218-3.22.047zm1.727 1.757c0 .28-1.073 10.716-1.104 10.84-.031.062-3.888 3.95-8.585 8.616l-8.554 8.492-5.024-5.024-5.023-5.023 2.55-2.55c1.4-1.4 5.273-5.242 8.585-8.539l6.035-5.988 5.334-.482c2.94-.264 5.428-.498 5.568-.498.171-.015.218.032.218.156z" fill="#003d7f"/><path d="M21.066 5.71c-2.722.653-4.106 3.857-2.784 6.47 1.198 2.364 4.837 2.83 6.874.87.84-.808 1.26-1.757 1.338-3 .124-2.147-1.058-3.842-3.049-4.355-.606-.14-1.726-.14-2.38.015zm2.193 1.649c.529.233 1.166.855 1.4 1.368.264.591.326 1.058.17 1.633-.388 1.478-1.944 2.567-3.265 2.287-.856-.171-1.773-.98-2.069-1.805-.171-.497-.155-1.15.062-1.71.296-.793 1.322-1.696 2.162-1.929.389-.109 1.135-.015 1.54.156z" fill="#003d7f"/></svg>