<svg width="47" height="47" fill="none" xmlns="http://www.w3.org/2000/svg"><path d="M23.054 5.667c-.937.058-2.357.295-3.054.507-.078.025-.251.077-.39.116-.343.1-1.194.401-1.45.515-1.699.74-2.79 1.403-4.1 2.495-.66.55-1.762 1.69-2.206 2.282a2.005 2.005 0 01-.094.123c-.087.083-.583.801-.907 1.308-.44.688-1.054 1.94-1.338 2.728a4.704 4.704 0 01-.098.265c-.056.13-.29.885-.348 1.124a14.458 14.458 0 00-.39 1.951c-.026.192-.06.468-.079.613-.045.362-.045 2.622.003 2.978.089.73.148 1.139.173 1.253.016.07.053.25.083.404.257 1.288.72 2.625 1.336 3.841.215.429.505.944.686 1.225.614.952.998 1.461 1.704 2.244.454.503.658.684.876.787.172.084.195.087.543.087.349 0 .371-.003.544-.087a1.28 1.28 0 00.725-1.364c-.053-.33-.15-.498-.521-.882a13.94 13.94 0 01-1.213-1.456c-1.068-1.475-1.877-3.357-2.2-5.105a9.447 9.447 0 01-.151-1.058 8.195 8.195 0 00-.056-.493c-.028-.114-.014-1.678.014-1.923.014-.134.047-.412.07-.618a11.58 11.58 0 01.337-1.712c.114-.412.237-.802.28-.896a.47.47 0 00.038-.11c0-.116.602-1.455.859-1.903a12.95 12.95 0 012.234-2.923 12.585 12.585 0 013.508-2.494 8.99 8.99 0 01.44-.206 1 1 0 00.134-.056c.477-.217 1.44-.531 2.083-.679.625-.142.686-.153 1.004-.198.176-.022.402-.055.502-.07.675-.105 2.31-.105 2.984 0 .1.017.346.054.544.084 2.105.31 4.264 1.253 6.007 2.622a14.06 14.06 0 012.027 1.985c.315.384.605.79 1.004 1.406.187.292.82 1.48.82 1.542 0 .008.03.084.07.167.039.084.07.159.07.167 0 .011.024.07.052.137.087.186.212.54.31.854.047.162.1.323.111.362.028.072.16.601.235.933.064.28.153.857.203 1.322.061.565.061 2.088 0 2.644a12.937 12.937 0 01-.995 3.8l-.112.25c-.2.463-.625 1.223-.957 1.724-.437.66-.797 1.119-1.344 1.715-.092.1-2.688 2.694-5.772 5.767l-5.605 5.584.892.894c.583.584.912.893.948.893.04 0 1.93-1.873 5.734-5.67 3.123-3.12 5.778-5.787 5.9-5.926.28-.315.804-.972 1.043-1.306.923-1.283 1.73-2.887 2.173-4.315a15.78 15.78 0 00.7-3.632c.036-.451.02-2.25-.028-2.575a44.44 44.44 0 01-.073-.557 13.457 13.457 0 00-.195-1.183 33.411 33.411 0 00-.25-1.03c-.23-.757-.47-1.434-.667-1.879-.037-.078-.092-.209-.131-.292-.28-.649-.901-1.743-1.378-2.43a30.564 30.564 0 00-.697-.927l-.14-.167c-1.447-1.762-3.5-3.321-5.59-4.246l-.433-.192c-.393-.178-1.406-.515-2.064-.684a16.142 16.142 0 00-4.977-.454z" fill="#fff"/><path d="M20.72 14.23a274.9 274.9 0 01-1.152 2.917 24 24 0 00-.181.46c-.087.222-.173.445-.198.495-.037.086-.106.258-.307.785-.04.1-.09.22-.112.27a.466.466 0 00-.039.105c0 .011-.02.059-.042.106-.02.05-.209.52-.418 1.05l-.619 1.559c-.131.328-.332.835-.446 1.127-.114.29-.22.56-.237.598-.014.04-.067.17-.117.293l-.09.222-.59.009-.592.005.006.774.008.771h6.051l.009-.774.005-.77h-.449c-.415 0-.449-.003-.435-.05.009-.026.104-.304.215-.619.112-.314.223-.64.254-.724.114-.345.329-.949.351-.988.025-.042.053.003.455.668.203.337.49.81.71 1.17l.391.64c1.001 1.653.937 1.547.974 1.536.027-.008.103-.13.538-.84l.482-.794c.173-.284.349-.57.39-.64l.391-.64c.173-.284.399-.654.5-.827.1-.173.189-.312.197-.315.008 0 .092.223.187.493.165.476.516 1.481.622 1.782l.053.147h-.89v1.56h6.052v-1.56h-1.163l-.034-.075a7.962 7.962 0 01-.13-.328 65.6 65.6 0 01-.443-1.114 48.226 48.226 0 00-.322-.807c-.014-.03-.134-.331-.265-.668a38.869 38.869 0 00-.265-.668c-.014-.03-.134-.332-.265-.668a37.923 37.923 0 00-.265-.668c-.014-.031-.094-.237-.184-.46-.086-.223-.31-.793-.499-1.266a120.47 120.47 0 01-.46-1.17 4.508 4.508 0 00-.14-.333.807.807 0 01-.055-.14 2.64 2.64 0 00-.07-.195c-.022-.047-.145-.359-.279-.695-.25-.64-.315-.794-.334-.794-.017 0-.251.395-.586.988-.165.29-.32.566-.349.613-.136.236-.507.888-.6 1.058a30.085 30.085 0 00-.55.946c-.49.863-.902 1.587-1.014 1.776-.052.09-.094.167-.094.173 0 .008-.037.07-.081.139l-.081.128-.098-.162-.153-.259c-.162-.286-.633-1.11-.675-1.183-.08-.142-.485-.846-.672-1.177a203.458 203.458 0 01-1.02-1.787c-.023-.04-.073-.128-.115-.198-.042-.07-.192-.334-.337-.59-.143-.256-.27-.465-.285-.465-.017 0-.033.022-.044.047z" fill="#fff"/></svg>