<svg width="24" height="25" fill="none" xmlns="http://www.w3.org/2000/svg"><g clip-path="url(#clip0_217_116)"><path d="M15.05 5.5A5 5 0 0119 9.45M15.05 1.5A9 9 0 0123 9.44m-1 7.98v3a2.001 2.001 0 01-2.18 2 19.79 19.79 0 01-8.63-3.07 19.499 19.499 0 01-6-6 19.79 19.79 0 01-3.07-8.67A2 2 0 014.11 2.5h3a2 2 0 012 1.72c.127.96.362 1.903.7 2.81a2 2 0 01-.45 2.11l-1.27 1.27a16 16 0 006 6l1.27-1.27a1.999 1.999 0 012.11-.45c.907.339 1.85.573 2.81.7A2 2 0 0122 17.42z" stroke="#22A5E6" stroke-width="2" stroke-linecap="round" stroke-linejoin="round"/></g><defs><clipPath id="clip0_217_116"><path fill="#fff" transform="translate(0 .5)" d="M0 0h24v24H0z"/></clipPath></defs></svg>