<?xml version="1.0" encoding="UTF-8" standalone="no"?>
<!DOCTYPE svg PUBLIC "-//W3C//DTD SVG 1.1//EN" "http://www.w3.org/Graphics/SVG/1.1/DTD/svg11.dtd">
<svg xmlns="http://www.w3.org/2000/svg" version="1.1" viewBox="0.00 0.00 512.00 512.00">
<g stroke-width="2.00" fill="none" stroke-linecap="butt">
<path stroke="#fab316" vector-effect="non-scaling-stroke" d="
  M 275.72 0.78
  Q 275.24 1.60 273.71 1.75
  Q 273.31 1.78 273.71 1.86
  Q 273.86 1.88 273.99 1.78
  A 0.15 0.15 0.0 0 1 274.23 1.95
  Q 274.07 2.45 273.49 2.43
  Q 272.94 2.41 272.47 2.70
  Q 270.97 3.63 269.70 4.90
  Q 135.57 139.04 1.88 272.74
  Q 1.56 273.06 1.33 272.67
  L 0.49 271.25"
/>
<path stroke="#fcbe12" vector-effect="non-scaling-stroke" d="
  M 8.00 192.00
  L 8.92 192.13
  Q 9.42 192.20 9.78 191.84
  L 191.49 10.13
  Q 191.81 9.81 191.76 9.36
  Q 191.69 8.83 192.01 8.01"
/>
<path stroke="#f8a81a" vector-effect="non-scaling-stroke" d="
  M 336.85 12.95
  Q 336.26 13.62 334.74 13.35
  Q 334.24 13.26 333.88 13.62
  L 13.66 333.84
  Q 13.32 334.18 12.88 333.97
  Q 12.29 333.68 12.36 333.11
  Q 12.37 332.97 12.38 333.11
  Q 12.38 333.54 12.12 334.24"
/>
<path stroke="#f79d1f" vector-effect="non-scaling-stroke" d="
  M 382.08 32.97
  L 382.02 33.61
  Q 381.96 34.14 381.45 33.99
  Q 381.22 33.92 381.29 33.61
  A 0.12 0.12 0.0 0 0 381.08 33.50
  L 352.48 62.04
  Q 352.08 62.44 352.06 63.01
  Q 352.01 63.91 351.13 64.13
  Q 335.59 79.65 320.05 95.19
  Q 319.93 95.30 319.89 95.43
  Q 319.88 95.48 319.89 95.53
  Q 320.00 95.90 319.62 95.88
  Q 318.94 95.84 318.77 96.52
  Q 309.18 105.98 299.28 116.07
  C 298.20 117.17 297.01 118.00 295.99 119.19
  Q 294.89 120.48 293.67 121.69
  Q 281.52 133.77 269.32 146.21"
/>
<path stroke="#fbd18e" vector-effect="non-scaling-stroke" d="
  M 269.32 146.21
  Q 230.26 142.05 197.89 162.00
  C 176.68 175.07 160.70 194.82 152.05 218.24
  Q 143.28 241.98 146.27 269.00"
/>
<path stroke="#f79d1f" vector-effect="non-scaling-stroke" d="
  M 146.27 269.00
  Q 121.57 293.93 104.53 310.77
  A 114.21 5.65 -44.9 0 0 93.08 322.16
  Q 79.50 335.76 64.04 351.18
  Q 63.92 351.31 63.90 351.49
  Q 63.88 351.64 63.88 351.79
  Q 63.88 351.89 63.78 351.89
  Q 63.73 351.89 63.68 351.88
  Q 63.47 351.84 63.31 352.00
  Q 54.19 361.24 44.48 370.88
  Q 36.93 378.38 32.85 381.84"
/>
<path stroke="#f59123" vector-effect="non-scaling-stroke" d="
  M 425.50 63.91
  L 423.98 63.88
  Q 423.51 63.88 423.18 64.21
  L 322.51 164.88
  A 0.37 0.34 20.8 0 1 322.26 164.98
  Q 320.14 165.00 319.87 165.77"
/>
<path stroke="#fbcb90" vector-effect="non-scaling-stroke" d="
  M 319.87 165.77
  Q 297.27 149.80 269.32 146.21"
/>
<path stroke="#f38528" vector-effect="non-scaling-stroke" d="
  M 459.75 100.77
  Q 459.74 100.97 459.45 100.83
  A 0.38 0.36 40.6 0 0 459.09 100.85
  Q 458.88 100.98 458.91 101.24
  Q 458.95 101.56 458.72 101.79
  L 354.59 205.92"
/>
<path stroke="#fac592" vector-effect="non-scaling-stroke" d="
  M 354.59 205.92
  Q 341.73 181.24 319.87 165.77"
/>
<path stroke="#f17a2c" vector-effect="non-scaling-stroke" d="
  M 487.35 145.98
  L 367.52 265.86
  Q 367.17 266.21 367.00 266.68
  Q 366.64 267.65 365.90 268.31"
/>
<path stroke="#f9bf95" vector-effect="non-scaling-stroke" d="
  M 365.90 268.31
  Q 369.18 234.88 354.59 205.92"
/>
<path stroke="#f8ba96" vector-effect="non-scaling-stroke" d="
  M 365.90 268.31
  Q 361.19 306.63 335.16 333.16
  Q 303.14 365.78 256.18 366.59"
/>
<path stroke="#f9bf95" vector-effect="non-scaling-stroke" d="
  M 256.18 366.59
  Q 229.27 366.34 205.94 354.57"
/>
<path stroke="#fac592" vector-effect="non-scaling-stroke" d="
  M 205.94 354.57
  Q 182.37 342.38 166.76 321.26"
/>
<path stroke="#fbcb90" vector-effect="non-scaling-stroke" d="
  M 166.76 321.26
  Q 149.39 297.02 146.27 269.00"
/>
<path stroke="#f0712f" vector-effect="non-scaling-stroke" d="
  M 499.57 177.07
  L 177.04 499.59"
/>
<path stroke="#f17a2c" vector-effect="non-scaling-stroke" d="
  M 140.16 484.46
  Q 196.35 428.24 252.51 372.12
  Q 255.92 368.72 256.18 366.59"
/>
<path stroke="#ee6733" vector-effect="non-scaling-stroke" d="
  M 510.83 231.99
  Q 510.44 231.85 510.21 231.90
  Q 509.84 231.99 510.00 232.33
  Q 510.44 233.28 510.09 234.27
  A 0.04 0.04 0.0 0 1 510.01 234.25
  Q 510.05 233.99 509.71 233.96
  A 0.36 0.34 23.5 0 0 509.44 234.06
  Q 371.72 371.78 234.00 509.50
  Q 233.86 509.64 233.83 510.00
  Q 233.78 510.52 234.30 510.51
  Q 235.69 510.50 234.81 511.10"
/>
<path stroke="#ed5c37" vector-effect="non-scaling-stroke" d="
  M 507.32 304.99
  Q 506.44 303.80 506.07 304.17
  Q 405.52 404.88 304.89 505.50
  Q 304.17 506.22 305.00 507.32"
/>
<path stroke="#f59123" vector-effect="non-scaling-stroke" d="
  M 166.76 321.26
  Q 166.78 321.65 166.53 321.97
  Q 166.41 322.14 166.20 322.14
  Q 166.02 322.15 165.87 322.04
  A 0.44 0.44 0.0 0 0 165.30 322.09
  L 64.20 423.18
  Q 63.87 423.52 63.88 423.99
  L 63.92 425.49"
/>
<path stroke="#f38528" vector-effect="non-scaling-stroke" d="
  M 205.94 354.57
  L 100.76 459.73"
/>
</g>
<path fill="#fbb914" d="
  M 248.39 0.00
  L 263.75 0.00
  L 275.72 0.78
  Q 275.24 1.60 273.71 1.75
  Q 273.31 1.78 273.71 1.86
  Q 273.86 1.88 273.99 1.78
  A 0.15 0.15 0.0 0 1 274.23 1.95
  Q 274.07 2.45 273.49 2.43
  Q 272.94 2.41 272.47 2.70
  Q 270.97 3.63 269.70 4.90
  Q 135.57 139.04 1.88 272.74
  Q 1.56 273.06 1.33 272.67
  L 0.49 271.25
  L 0.00 263.62
  L 0.00 248.26
  Q 1.08 219.62 8.00 192.00
  L 8.92 192.13
  Q 9.42 192.20 9.78 191.84
  L 191.49 10.13
  Q 191.81 9.81 191.76 9.36
  Q 191.69 8.83 192.01 8.01
  Q 219.68 1.11 248.39 0.00
  Z"
/>
<path fill="#f9ad18" d="
  M 275.72 0.78
  Q 306.99 3.09 336.85 12.95
  Q 336.26 13.62 334.74 13.35
  Q 334.24 13.26 333.88 13.62
  L 13.66 333.84
  Q 13.32 334.18 12.88 333.97
  Q 12.29 333.68 12.36 333.11
  Q 12.37 332.97 12.38 333.11
  Q 12.38 333.54 12.12 334.24
  Q 2.33 303.54 0.49 271.25
  L 1.33 272.67
  Q 1.56 273.06 1.88 272.74
  Q 135.57 139.04 269.70 4.90
  Q 270.97 3.63 272.47 2.70
  Q 272.94 2.41 273.49 2.43
  Q 274.07 2.45 274.23 1.95
  A 0.15 0.15 0.0 0 0 273.99 1.78
  Q 273.86 1.88 273.71 1.86
  Q 273.31 1.78 273.71 1.75
  Q 275.24 1.60 275.72 0.78
  Z"
/>
<path fill="#fcc310" d="
  M 192.01 8.01
  Q 191.69 8.83 191.76 9.36
  Q 191.81 9.81 191.49 10.13
  L 9.78 191.84
  Q 9.42 192.20 8.92 192.13
  L 8.00 192.00
  C 31.24 101.56 101.90 31.29 192.01 8.01
  Z"
/>
<path fill="#f7a21c" d="
  M 336.85 12.95
  Q 360.41 20.73 382.08 32.97
  L 382.02 33.61
  Q 381.96 34.14 381.45 33.99
  Q 381.22 33.92 381.29 33.61
  A 0.12 0.12 0.0 0 0 381.08 33.50
  L 352.48 62.04
  Q 352.08 62.44 352.06 63.01
  Q 352.01 63.91 351.13 64.13
  Q 335.59 79.65 320.05 95.19
  Q 319.93 95.30 319.89 95.43
  Q 319.88 95.48 319.89 95.53
  Q 320.00 95.90 319.62 95.88
  Q 318.94 95.84 318.77 96.52
  Q 309.18 105.98 299.28 116.07
  C 298.20 117.17 297.01 118.00 295.99 119.19
  Q 294.89 120.48 293.67 121.69
  Q 281.52 133.77 269.32 146.21
  Q 230.26 142.05 197.89 162.00
  C 176.68 175.07 160.70 194.82 152.05 218.24
  Q 143.28 241.98 146.27 269.00
  Q 121.57 293.93 104.53 310.77
  A 114.21 5.65 -44.9 0 0 93.08 322.16
  Q 79.50 335.76 64.04 351.18
  Q 63.92 351.31 63.90 351.49
  Q 63.88 351.64 63.88 351.79
  Q 63.88 351.89 63.78 351.89
  Q 63.73 351.89 63.68 351.88
  Q 63.47 351.84 63.31 352.00
  Q 54.19 361.24 44.48 370.88
  Q 36.93 378.38 32.85 381.84
  Q 20.01 359.05 12.12 334.24
  Q 12.38 333.54 12.38 333.11
  Q 12.37 332.97 12.36 333.11
  Q 12.29 333.68 12.88 333.97
  Q 13.32 334.18 13.66 333.84
  L 333.88 13.62
  Q 334.24 13.26 334.74 13.35
  Q 336.26 13.62 336.85 12.95
  Z"
/>
<path fill="#f69721" d="
  M 382.08 32.97
  Q 405.41 46.19 425.50 63.91
  L 423.98 63.88
  Q 423.51 63.88 423.18 64.21
  L 322.51 164.88
  A 0.37 0.34 20.8 0 1 322.26 164.98
  Q 320.14 165.00 319.87 165.77
  Q 297.27 149.80 269.32 146.21
  Q 281.52 133.77 293.67 121.69
  Q 294.89 120.48 295.99 119.19
  C 297.01 118.00 298.20 117.17 299.28 116.07
  Q 309.18 105.98 318.77 96.52
  Q 318.94 95.84 319.62 95.88
  Q 320.00 95.90 319.89 95.53
  Q 319.88 95.48 319.89 95.43
  Q 319.93 95.30 320.05 95.19
  Q 335.59 79.65 351.13 64.13
  Q 352.01 63.91 352.06 63.01
  Q 352.08 62.44 352.48 62.04
  L 381.08 33.50
  A 0.12 0.12 0.0 0 1 381.29 33.61
  Q 381.22 33.92 381.45 33.99
  Q 381.96 34.14 382.02 33.61
  L 382.08 32.97
  Z"
/>
<path fill="#f48b25" d="
  M 425.50 63.91
  Q 444.47 80.62 459.75 100.77
  Q 459.74 100.97 459.45 100.83
  A 0.38 0.36 40.6 0 0 459.09 100.85
  Q 458.88 100.98 458.91 101.24
  Q 458.95 101.56 458.72 101.79
  L 354.59 205.92
  Q 341.73 181.24 319.87 165.77
  Q 320.14 165.00 322.26 164.98
  A 0.37 0.34 20.8 0 0 322.51 164.88
  L 423.18 64.21
  Q 423.51 63.88 423.98 63.88
  L 425.50 63.91
  Z"
/>
<path fill="#f27e2a" d="
  M 459.75 100.77
  Q 475.55 121.32 487.35 145.98
  L 367.52 265.86
  Q 367.17 266.21 367.00 266.68
  Q 366.64 267.65 365.90 268.31
  Q 369.18 234.88 354.59 205.92
  L 458.72 101.79
  Q 458.95 101.56 458.91 101.24
  Q 458.88 100.98 459.09 100.85
  A 0.38 0.36 40.6 0 1 459.45 100.83
  Q 459.74 100.97 459.75 100.77
  Z"
/>
<path fill="#ffffff" d="
  M 269.32 146.21
  Q 297.27 149.80 319.87 165.77
  Q 341.73 181.24 354.59 205.92
  Q 369.18 234.88 365.90 268.31
  Q 361.19 306.63 335.16 333.16
  Q 303.14 365.78 256.18 366.59
  Q 229.27 366.34 205.94 354.57
  Q 182.37 342.38 166.76 321.26
  Q 149.39 297.02 146.27 269.00
  Q 143.28 241.98 152.05 218.24
  C 160.70 194.82 176.68 175.07 197.89 162.00
  Q 230.26 142.05 269.32 146.21
  Z"
/>
<path fill="#f0752d" d="
  M 487.35 145.98
  Q 494.55 161.04 499.57 177.07
  L 177.04 499.59
  Q 158.02 493.54 140.16 484.46
  Q 196.35 428.24 252.51 372.12
  Q 255.92 368.72 256.18 366.59
  Q 303.14 365.78 335.16 333.16
  Q 361.19 306.63 365.90 268.31
  Q 366.64 267.65 367.00 266.68
  Q 367.17 266.21 367.52 265.86
  L 487.35 145.98
  Z"
/>
<path fill="#ef6c31" d="
  M 499.57 177.07
  Q 508.45 204.35 510.83 231.99
  Q 510.44 231.85 510.21 231.90
  Q 509.84 231.99 510.00 232.33
  Q 510.44 233.28 510.09 234.27
  A 0.04 0.04 0.0 0 1 510.01 234.25
  Q 510.05 233.99 509.71 233.96
  A 0.36 0.34 23.5 0 0 509.44 234.06
  Q 371.72 371.78 234.00 509.50
  Q 233.86 509.64 233.83 510.00
  Q 233.78 510.52 234.30 510.51
  Q 235.69 510.50 234.81 511.10
  Q 205.12 508.69 177.04 499.59
  L 499.57 177.07
  Z"
/>
<path fill="#ed6135" d="
  M 510.83 231.99
  L 512.00 248.63
  L 512.00 263.49
  Q 511.14 284.47 507.32 304.99
  Q 506.44 303.80 506.07 304.17
  Q 405.52 404.88 304.89 505.50
  Q 304.17 506.22 305.00 507.32
  Q 294.81 509.31 284.50 510.37
  Q 273.97 511.46 263.37 512.00
  L 248.50 512.00
  L 234.81 511.10
  Q 235.69 510.50 234.30 510.51
  Q 233.78 510.52 233.83 510.00
  Q 233.86 509.64 234.00 509.50
  Q 371.72 371.78 509.44 234.06
  A 0.36 0.34 23.5 0 1 509.71 233.96
  Q 510.05 233.99 510.01 234.25
  A 0.04 0.04 0.0 0 0 510.09 234.27
  Q 510.44 233.28 510.00 232.33
  Q 509.84 231.99 510.21 231.90
  Q 510.44 231.85 510.83 231.99
  Z"
/>
<path fill="#f69721" d="
  M 146.27 269.00
  Q 149.39 297.02 166.76 321.26
  Q 166.78 321.65 166.53 321.97
  Q 166.41 322.14 166.20 322.14
  Q 166.02 322.15 165.87 322.04
  A 0.44 0.44 0.0 0 0 165.30 322.09
  L 64.20 423.18
  Q 63.87 423.52 63.88 423.99
  L 63.92 425.49
  Q 46.08 405.24 32.85 381.84
  Q 36.93 378.38 44.48 370.88
  Q 54.19 361.24 63.31 352.00
  Q 63.47 351.84 63.68 351.88
  Q 63.73 351.89 63.78 351.89
  Q 63.88 351.89 63.88 351.79
  Q 63.88 351.64 63.90 351.49
  Q 63.92 351.31 64.04 351.18
  Q 79.50 335.76 93.08 322.16
  A 114.21 5.65 -44.9 0 1 104.53 310.77
  Q 121.57 293.93 146.27 269.00
  Z"
/>
<path fill="#ec5739" d="
  M 507.32 304.99
  C 494.34 371.93 455.38 430.55 398.85 468.57
  Q 355.91 497.46 305.00 507.32
  Q 304.17 506.22 304.89 505.50
  Q 405.52 404.88 506.07 304.17
  Q 506.44 303.80 507.32 304.99
  Z"
/>
<path fill="#f48b25" d="
  M 166.76 321.26
  Q 182.37 342.38 205.94 354.57
  L 100.76 459.73
  Q 80.61 444.41 63.92 425.49
  L 63.88 423.99
  Q 63.87 423.52 64.20 423.18
  L 165.30 322.09
  A 0.44 0.44 0.0 0 1 165.87 322.04
  Q 166.02 322.15 166.20 322.14
  Q 166.41 322.14 166.53 321.97
  Q 166.78 321.65 166.76 321.26
  Z"
/>
<path fill="#f27e2a" d="
  M 205.94 354.57
  Q 229.27 366.34 256.18 366.59
  Q 255.92 368.72 252.51 372.12
  Q 196.35 428.24 140.16 484.46
  Q 119.37 473.93 100.76 459.73
  L 205.94 354.57
  Z"
/>
</svg>
